<svg width="55" height="55" viewBox="0 0 55 55" fill="none" xmlns="http://www.w3.org/2000/svg">
<rect width="55" height="55" rx="10" fill="#FF6533" fill-opacity="0.2"/>
<path d="M21.5073 24.6146L24.6146 21.5075L22.5428 19.4357L21.5071 20.4714L16.0357 15L15 16.0357L20.4714 21.5071L19.4357 22.5428L21.5073 24.6146Z" fill="#FF6533"/>
<path d="M38.9642 34.0884L38.0798 34.9729L36.008 32.9011L32.9004 36.0084L34.9723 38.0803L34.0883 38.9644L35.124 40.0001L39.9999 35.1241L38.9642 34.0884Z" fill="#FF6533"/>
<path d="M36.7883 27.9995L34.983 29.8046L26.6861 21.5071L21.5068 26.6863L23.5786 28.7579L26.1682 26.1684L27.2037 27.2039L24.6143 29.7936L25.65 30.8292L28.2394 28.2396L29.2751 29.2753L26.6857 31.8649L27.7217 32.901L30.3108 30.3118L31.3465 31.3475L28.7574 33.9367L29.8042 34.9835L27.9993 36.7886L29.0348 37.8241L37.8238 29.035L36.7883 27.9995Z" fill="#FF6533"/>
</svg>
