<svg width="55" height="55" viewBox="0 0 55 55" fill="none" xmlns="http://www.w3.org/2000/svg">
<rect width="55" height="55" rx="10" fill="#FF55BF" fill-opacity="0.2"/>
<path d="M21.2859 25.9376C21.4281 27.0708 21.9791 28.1132 22.8355 28.8689C23.692 29.6246 24.7948 30.0416 25.937 30.0416C27.0791 30.0416 28.182 29.6246 29.0384 28.8689C29.8948 28.1132 30.4458 27.0708 30.588 25.9376C31.0024 25.9424 31.4017 25.7824 31.6982 25.4928C31.9946 25.2032 32.1639 24.8077 32.1687 24.3933C32.1736 23.9789 32.0136 23.5796 31.724 23.2831C31.4344 22.9867 31.0389 22.8174 30.6245 22.8126C29.5012 22.8161 28.4109 22.4336 27.5359 21.7292C25.6297 23.1459 22.4057 22.8126 21.2495 22.8126C21.0443 22.815 20.8416 22.8578 20.6529 22.9385C20.4642 23.0192 20.2933 23.1363 20.1499 23.2831C20.0065 23.4299 19.8935 23.6035 19.8171 23.794C19.7408 23.9845 19.7028 24.1881 19.7052 24.3933C19.7076 24.5985 19.7504 24.8012 19.8311 24.9899C19.9118 25.1785 20.0289 25.3494 20.1757 25.4928C20.4722 25.7824 20.8715 25.9424 21.2859 25.9376ZM27.4995 23.3334C27.6376 23.3334 27.7701 23.3883 27.8677 23.486C27.9654 23.5836 28.0203 23.7161 28.0203 23.8542C28.0203 23.9924 28.0752 24.1249 28.1728 24.2225C28.2705 24.3202 28.403 24.3751 28.5411 24.3751C28.6793 24.3751 28.8117 24.43 28.9094 24.5276C29.0071 24.6253 29.062 24.7578 29.062 24.8959C29.062 25.034 29.0071 25.1665 28.9094 25.2642C28.8117 25.3619 28.6793 25.4167 28.5411 25.4167C26.9786 25.4167 26.4995 23.3334 27.4995 23.3334ZM27.7859 27.5886C27.887 27.67 27.954 27.7862 27.9739 27.9145C27.9938 28.0427 27.965 28.1738 27.8934 28.2819C27.8217 28.3901 27.7122 28.4676 27.5863 28.4993C27.4605 28.531 27.3274 28.5145 27.213 28.4532C26.8294 28.2168 26.3876 28.0916 25.937 28.0916C25.4863 28.0916 25.0446 28.2168 24.6609 28.4532C24.5466 28.5145 24.4134 28.531 24.2876 28.4993C24.1617 28.4676 24.0522 28.3901 23.9806 28.2819C23.9089 28.1738 23.8802 28.0427 23.9 27.9145C23.9199 27.7862 23.9869 27.67 24.088 27.5886C24.6396 27.2344 25.2814 27.0461 25.937 27.0461C26.5925 27.0461 27.2343 27.2344 27.7859 27.5886ZM23.3328 24.3751C23.4709 24.3751 23.6034 24.3202 23.7011 24.2225C23.7987 24.1249 23.8536 23.9924 23.8536 23.8542C23.8536 23.7161 23.9085 23.5836 24.0062 23.486C24.1038 23.3883 24.2363 23.3334 24.3745 23.3334C25.364 23.3334 24.8953 25.4167 23.3328 25.4167C23.1947 25.4167 23.0622 25.3619 22.9645 25.2642C22.8668 25.1665 22.812 25.034 22.812 24.8959C22.812 24.7578 22.8668 24.6253 22.9645 24.5276C23.0622 24.43 23.1947 24.3751 23.3328 24.3751Z" fill="#FF55BF"/>
<path d="M28.083 33.4115C27.6628 33.8155 27.1381 34.0938 26.568 34.2152C25.998 34.3365 25.4053 34.2961 24.8571 34.0983C24.3088 33.9006 23.8268 33.5535 23.4654 33.0962C23.1041 32.6389 22.8778 32.0896 22.8122 31.5105L19.3747 32.7397C18.5203 33.0531 17.763 33.5849 17.1781 34.2822C16.5933 34.9794 16.2013 35.8177 16.0413 36.7136L15.5205 39.4792H30.8226C29.8406 38.8288 29.0624 37.9141 28.5777 36.8405C28.093 35.767 27.9215 34.5783 28.083 33.4115Z" fill="#FF55BF"/>
<path d="M23.8543 30.75C23.8088 31.0874 23.84 31.4307 23.9455 31.7545C24.051 32.0782 24.2281 32.3739 24.4636 32.6198C24.755 32.9115 25.1264 33.1102 25.5307 33.1907C25.935 33.2712 26.3542 33.2299 26.7351 33.0721C27.116 32.9143 27.4414 32.647 27.6703 32.3041C27.8992 31.9612 28.0213 31.5581 28.0209 31.1458V30.75C26.6818 31.276 25.1933 31.276 23.8543 30.75Z" fill="#FF55BF"/>
<path d="M27.4993 20.2084C27.8632 20.6935 28.335 21.0873 28.8774 21.3585C29.4198 21.6297 30.0179 21.7709 30.6243 21.7709H31.1452C31.1452 20.1771 31.2025 18.6459 29.6191 17.0469C28.8907 16.3187 27.9628 15.8229 26.9526 15.622C25.9425 15.4211 24.8954 15.5243 23.9439 15.9184C22.9923 16.3125 22.1789 16.9799 21.6066 17.8362C21.0343 18.6925 20.7287 19.6992 20.7285 20.7292V21.7709C22.3275 21.7709 26.5202 22.1667 27.4993 20.2084Z" fill="#FF55BF"/>
<path d="M34.2708 29.0625C33.2407 29.0625 32.2337 29.368 31.3772 29.9403C30.5207 30.5126 29.8532 31.326 29.459 32.2777C29.0648 33.2294 28.9616 34.2766 29.1626 35.2869C29.3635 36.2972 29.8596 37.2253 30.588 37.9537C31.3164 38.6821 32.2444 39.1781 33.2547 39.3791C34.2651 39.5801 35.3123 39.4769 36.264 39.0827C37.2157 38.6885 38.0291 38.0209 38.6014 37.1644C39.1737 36.3079 39.4792 35.3009 39.4792 34.2708C39.4792 32.8895 38.9304 31.5647 37.9537 30.588C36.9769 29.6112 35.6522 29.0625 34.2708 29.0625ZM36.875 35.3125H35.3125V36.875H33.2292V35.3125H31.6667V33.2292H33.2292V31.6667H35.3125V33.2292H36.875V35.3125Z" fill="#FF55BF"/>
</svg>
