<svg width="14" height="16" viewBox="0 0 14 16" fill="currentColor" xmlns="http://www.w3.org/2000/svg">
<path d="M12.625 0.25H11.5V0.8125C11.5 1.74287 10.7429 2.5 9.8125 2.5H4.1875C3.25712 2.5 2.5 1.74287 2.5 0.8125V0.25H1.375C0.755125 0.25 0.25 0.755125 0.25 1.375V14.875C0.25 15.5061 0.743875 16 1.375 16H12.625C13.2561 16 13.75 15.5061 13.75 14.875V1.375C13.75 0.743875 13.2561 0.25 12.625 0.25ZM7.5625 3.68238C8.66275 3.90625 9.53125 4.77475 9.75513 5.875H7.5625V3.68238ZM6.4375 3.68238V6.4375C6.4375 6.748 6.6895 7 7 7H9.75513C9.49413 8.2825 8.359 9.25 7 9.25C5.44975 9.25 4.1875 7.98775 4.1875 6.4375C4.1875 5.07963 5.155 3.94338 6.4375 3.68238ZM7.5625 13.75H3.0625C2.752 13.75 2.5 13.498 2.5 13.1875C2.5 12.877 2.752 12.625 3.0625 12.625H7.5625C7.873 12.625 8.125 12.877 8.125 13.1875C8.125 13.498 7.873 13.75 7.5625 13.75ZM10.9375 11.5H3.0625C2.752 11.5 2.5 11.248 2.5 10.9375C2.5 10.627 2.752 10.375 3.0625 10.375H10.9375C11.248 10.375 11.5 10.627 11.5 10.9375C11.5 11.248 11.248 11.5 10.9375 11.5Z" fill="#70708C"/>
</svg>
